<svg xmlns="http://www.w3.org/2000/svg" viewBox="0 0 128 128">
  <rect width="128" height="128" rx="28" fill="#161a21"/>
  <g>
    <path d="M64 64 L64 20 A44 44 0 0 1 95.11 32.89 Z" fill="#7c5cdb"/>
    <path d="M64 64 L95.11 32.89 A44 44 0 0 1 108 64 Z" fill="#d6519b"/>
    <path d="M64 64 L108 64 A44 44 0 0 1 95.11 95.11 Z" fill="#e08a2e"/>
    <path d="M64 64 L95.11 95.11 A44 44 0 0 1 64 108 Z" fill="#d9b53f"/>
    <path d="M64 64 L64 108 A44 44 0 0 1 32.89 95.11 Z" fill="#3fae5a"/>
    <path d="M64 64 L32.89 95.11 A44 44 0 0 1 20 64 Z" fill="#2aa9a0"/>
    <path d="M64 64 L20 64 A44 44 0 0 1 32.89 32.89 Z" fill="#3f7fd6"/>
    <path d="M64 64 L32.89 32.89 A44 44 0 0 1 64 20 Z" fill="#cf4747"/>
    <circle cx="64" cy="64" r="44" fill="none" stroke="#d8b15a" stroke-width="4"/>
    <circle cx="64" cy="64" r="11" fill="#161a21" stroke="#d8b15a" stroke-width="2.5"/>
  </g>
  <path d="M64 27 C61 27 58.5 24 58.5 20 C58.5 15 64 8 64 8 C64 8 69.5 15 69.5 20 C69.5 24 67 27 64 27 Z" fill="#ecca77"/>
</svg>
